<?xml version="1.0" encoding="UTF-8" standalone="no"?>
<!-- Created with Inkscape (http://www.inkscape.org/) -->

<svg
   xmlns:dc="http://purl.org/dc/elements/1.1/"
   xmlns:cc="http://creativecommons.org/ns#"
   xmlns:rdf="http://www.w3.org/1999/02/22-rdf-syntax-ns#"
   xmlns:svg="http://www.w3.org/2000/svg"
   xmlns="http://www.w3.org/2000/svg"
   version="1.1"
   width="165.68906"
   height="123.85313"
   id="svg2">
  <defs
     id="defs4" />
  <metadata
     id="metadata7">
    <rdf:RDF>
      <cc:Work
         rdf:about="">
        <dc:format>image/svg+xml</dc:format>
        <dc:type
           rdf:resource="http://purl.org/dc/dcmitype/StillImage" />
        <dc:title></dc:title>
      </cc:Work>
    </rdf:RDF>
  </metadata>
  <g
     transform="translate(-348.6559,-3.466542)"
     id="layer1">
    <g
       id="text2989"
       style="font-size:144px;font-style:normal;font-variant:normal;font-weight:normal;font-stretch:normal;text-align:start;line-height:125%;letter-spacing:0px;word-spacing:0px;writing-mode:lr-tb;text-anchor:start;fill:#ec9008;fill-opacity:1;stroke:#643204;stroke-width:3.9000001;stroke-miterlimit:4;stroke-opacity:1;font-family:A Charming Font;-inkscape-font-specification:A Charming Font">
      <path
         d="m 409.24652,27.143105 c 1.03119,-8.109294 2.76556,-13.031164 5.20313,-14.765625 -1.17194,0.09384 -2.03913,0.140713 -2.60157,0.140625 -3.00006,8.8e-5 -5.55474,-1.007724 -7.66406,-3.0234379 l -3.16406,-3.0234375 c -7.7813,-0.7030301 -13.33598,-1.0545922 -16.66406,-1.0546875 -18.79689,9.53e-5 -28.03126,6.9141509 -27.70313,20.7421879 0.32812,12.093812 4.9453,19.828179 13.85156,23.203125 l 24.60938,4.710937 c 8.90619,2.625044 13.4765,9.1641 13.71094,19.617188 0.14056,7.312519 -1.17194,12.609389 -3.9375,15.890625 -3.04693,3.515632 -8.17974,5.179693 -15.39844,4.992187 -13.03128,-0.374993 -22.10158,-1.664055 -27.21094,-3.867187 -6.14063,-2.671863 -9.67969,-7.382796 -10.61719,-14.132813 0.5625,-5.156221 3.86719,-8.906217 9.91407,-11.25 1.68748,-0.656214 5.62498,-1.5234 11.8125,-2.601562 1.59372,-0.281212 2.97653,-0.421837 4.14843,-0.421875 3.93747,3.8e-5 7.54684,0.867225 10.82813,2.601562 2.01558,1.07816 2.97652,2.906283 2.88281,5.484375 -0.18754,4.265651 -4.89847,6.703149 -14.13281,7.3125 -2.57815,0.187523 -5.01565,-0.374977 -7.3125,-1.6875 -2.29689,-1.312474 -3.84377,-3.140597 -4.64063,-5.484375 l -1.26562,-1.335937 c -0.18752,2.062529 0.37498,4.171902 1.6875,6.328125 1.31248,2.156273 2.90623,3.703146 4.78125,4.640625 3.74997,1.875018 7.40622,2.554705 10.96875,2.039062 7.54683,-1.12498 11.41402,-4.640602 11.60156,-10.546875 0.0937,-3.562467 -1.05473,-6.23434 -3.44531,-8.015625 -4.87504,-3.656209 -10.05472,-5.484332 -15.53906,-5.484375 -4.40627,4.3e-5 -8.85939,1.054729 -13.35938,3.164063 -6.65625,3.093786 -9.98437,7.757844 -9.98437,13.992187 0,1.406274 0.21093,2.92971 0.63281,4.570313 1.03125,8.484387 4.9453,14.390631 11.74219,17.71875 5.06248,2.48438 12.37497,3.72656 21.9375,3.72656 10.2187,0 17.55463,-2.765621 22.00781,-8.296873 4.07806,-5.062487 5.95306,-12.796854 5.625,-23.203125 -0.37506,-12.187457 -5.086,-20.062449 -14.13281,-23.625 l -24.60938,-5.203125 c -8.67189,-1.828063 -13.12501,-8.203057 -13.35937,-19.125 -0.14064,-8.343663 5.64842,-12.5155335 17.36718,-12.5156249 9.28122,9.14e-5 15.82027,1.1954029 19.61719,3.5859379 3.14058,1.968835 5.78901,6.820393 7.94531,14.554687 1.4062,5.015693 2.1562,8.367252 2.25,10.054688 l 0.28125,0 1.33594,-10.40625"
         id="path2986" />
      <path
         d="m 431.25433,86.90873 c 2.57811,-6.46873 4.40623,-14.437472 5.48438,-23.90625 -3.32814,-3.421834 -7.78127,-6.445269 -13.35938,-9.070313 l -6.04687,5.625 c 0.28125,17.578149 3.11718,31.21876 8.50781,40.921873 l 0.5625,-1.47656 4.85156,-12.09375 m -0.14062,-23.554688 0,0 c 0.0937,1.781286 0.14061,3.539096 0.14062,5.273438 -10e-6,8.156274 -1.28907,16.476578 -3.86718,24.960937 -3.04689,-8.062485 -4.57032,-17.132788 -4.57032,-27.210937 0,-2.437464 0.0937,-4.804649 0.28125,-7.101563 1.92187,0.562541 4.59374,1.921915 8.01563,4.078125"
         id="path2988" />
      <path
         d="m 483.98871,25.174355 0,0 c 2.48433,7.5e-5 4.61714,-0.585862 6.39844,-1.757813 2.06244,-1.312421 3.09369,-3.140544 3.09375,-5.484375 -6e-5,-4.499913 -2.67193,-7.804597 -8.01563,-9.9140624 -3.89067,-1.5467808 -8.46097,-2.3202175 -13.71094,-2.3203125 -9.28127,9.5e-5 -16.68751,2.0860304 -22.21875,6.2578129 -6.23438,4.687584 -9.1875,11.531327 -8.85937,20.53125 l 0.42187,11.671875 -3.16406,0.28125 c -3.46874,5.6e-5 -5.43749,-1.24213 -5.90625,-3.726563 l -0.5625,0 c 0.28126,4.968805 3.53907,7.570365 9.77344,7.804688 l 2.74219,76.851565 1.26562,-0.84375 1.61719,-76.640628 4.99219,-1.265625 -0.28125,-0.5625 -0.5625,0.140625 0.28125,0.5625 c 3.37498,-1.546819 6.53904,-2.320256 9.49218,-2.320312 2.29685,5.6e-5 4.2656,0.445368 5.90625,1.335937 1.12497,0.609429 3.18747,2.27349 6.1875,4.992188 -4.12503,-7.078068 -9.30471,-10.617127 -15.53906,-10.617188 -1.73439,6.1e-5 -5.13282,0.820372 -10.19531,2.460938 l 0,-6.820313 c -1e-5,-9.421801 1.68749,-16.312419 5.0625,-20.671875 3.84373,-4.921784 10.35935,-7.3827194 19.54687,-7.3828124 4.54684,9.3e-5 8.81246,0.6797798 12.79688,2.0390625 5.39057,1.8282139 8.08588,4.5469609 8.08594,8.1562499 -6e-5,2.62508 -1.68756,3.937579 -5.0625,3.9375 -2.3438,7.9e-5 -5.81255,-0.632733 -10.40625,-1.898437 -4.54691,-1.265543 -7.99222,-1.898355 -10.33594,-1.898438 -5.43752,8.3e-5 -9.16408,2.929767 -11.17969,8.789063 2.29686,-3.140548 5.10935,-4.710859 8.4375,-4.710938 2.24997,7.9e-5 5.55466,0.515703 9.91406,1.546875 4.40621,0.984451 7.73434,1.476638 9.98438,1.476563"
         id="path2990" />
      <path
         d="m 479.76996,79.59623 0,0 c -2e-5,-8.437471 1.05467,-14.67184 3.16406,-18.703125 l -6.39844,-7.101563 c -1.31251,6.65629 -1.96876,12.960972 -1.96875,18.914063 -10e-6,2.8594 0.18749,5.742209 0.5625,8.648437 -10e-6,2.953142 -1.59376,7.312512 -4.78125,13.078125 -1.92188,-5.578113 -2.88282,-12.117169 -2.88281,-19.617187 -10e-6,-5.062469 0.53906,-10.242152 1.61719,-15.539063 l -6.60938,-5.484375 c -0.0937,3.656293 -0.14062,7.171915 -0.14062,10.546875 0,16.68752 2.06249,29.062507 6.1875,37.125003 3.65624,-6.609372 6.18748,-11.414055 7.59375,-14.414065 1.45311,6.281257 3.28123,11.390627 5.48437,15.328125 -1.21877,-8.578118 -1.82814,-16.171861 -1.82812,-22.78125"
         id="path2992" />
      <path
         d="m 495.23871,100.33842 c 1.64061,-4.593748 7.35936,-9.023431 17.15625,-13.289065 -6.70315,-5.249981 -13.26564,-11.624975 -19.6875,-19.125 1.82811,-1.734341 4.68749,-3.257777 8.57812,-4.570313 1.54686,1.781286 2.67186,5.554719 3.375,11.320313 l 0.5625,0 c 0.28123,-6.890592 1.10154,-11.484338 2.46094,-13.78125 l -5.48437,-6.046875 c -1.54689,3.328167 -3.8672,5.953165 -6.96094,7.875 -0.37501,0.187537 -3.58595,1.828161 -9.63281,4.921875 6.56249,7.125026 13.24217,13.218769 20.03906,18.28125 -1.64065,2.109387 -4.75783,3.984385 -9.35156,5.625 -2.20314,-2.203114 -3.16407,-5.507798 -2.88282,-9.914063 l -0.70312,0 c -0.70313,3.515641 -1.66407,7.734386 -2.88281,12.65625 l 5.41406,6.046878"
         id="path2994" />
    </g>
  </g>
</svg>
